<?xml version="1.0" encoding="UTF-8" standalone="no"?>
<!-- Generator: Adobe Illustrator 23.1.0, SVG Export Plug-In . SVG Version: 6.00 Build 0)  -->

<svg
   xmlns:dc="http://purl.org/dc/elements/1.1/"
   xmlns:cc="http://creativecommons.org/ns#"
   xmlns:rdf="http://www.w3.org/1999/02/22-rdf-syntax-ns#"
   xmlns:svg="http://www.w3.org/2000/svg"
   xmlns="http://www.w3.org/2000/svg"
   xmlns:sodipodi="http://sodipodi.sourceforge.net/DTD/sodipodi-0.dtd"
   xmlns:inkscape="http://www.inkscape.org/namespaces/inkscape"
   version="1.1"
   id="Layer_1"
   x="0px"
   y="0px"
   viewBox="0 0 200 32"
   style="enable-background:new 0 0 200 32;"
   xml:space="preserve"
   sodipodi:docname="logo.svg"
   inkscape:version="0.92.4 (5da689c313, 2019-01-14)"><metadata
   id="metadata19"><rdf:RDF><cc:Work
       rdf:about=""><dc:format>image/svg+xml</dc:format><dc:type
         rdf:resource="http://purl.org/dc/dcmitype/StillImage" /></cc:Work></rdf:RDF></metadata><defs
   id="defs17" /><sodipodi:namedview
   pagecolor="#ffffff"
   bordercolor="#666666"
   borderopacity="1"
   objecttolerance="10"
   gridtolerance="10"
   guidetolerance="10"
   inkscape:pageopacity="0"
   inkscape:pageshadow="2"
   inkscape:window-width="1920"
   inkscape:window-height="1017"
   id="namedview15"
   showgrid="false"
   inkscape:zoom="5.68"
   inkscape:cx="88.271955"
   inkscape:cy="15.987379"
   inkscape:window-x="-8"
   inkscape:window-y="-8"
   inkscape:window-maximized="1"
   inkscape:current-layer="Layer_1" />
<style
   type="text/css"
   id="style2">
	.st0{fill:#2D503B;}
	.st1{font-family:'SukhumvitSet-Thin';}
	.st2{font-size:35px;}
	.st3{font-family:'SukhumvitSet-Medium';}
	.st4{font-size:30px;}
	.st5{fill:none;stroke:#B29740;stroke-miterlimit:10;}
	.st6{fill:#B29740;}
	.st7{font-family:'SukhumvitSet-Text';}
</style>
<rect
   x="104.23"
   y="-9.95"
   style="fill:none;"
   width="1.86"
   height="4.5"
   id="rect4" />
<g
   aria-label="NORMS"
   transform="matrix(1 0 0 1 -0.3098 28.3313)"
   style="font-style:normal;font-variant:normal;font-weight:300;font-stretch:normal;font-size:35px;font-family:'Sukhumvit Set';-inkscape-font-specification:'Sukhumvit Set, Light';font-variant-ligatures:normal;font-variant-caps:normal;font-variant-numeric:normal;font-feature-settings:normal;text-align:start;writing-mode:lr-tb;text-anchor:start;fill:#2d503b"
   id="text6"><path
     d="m 15.645,-7.525 q 0.735,1.225 1.33,2.345 0.595,1.085 0.945,1.785 l 0.245,-0.07 Q 18.06,-4.69 17.99,-5.88 17.955,-7.07 17.955,-8.54 V -23.59 H 20.37 V 0 H 17.71 L 7.7,-16.065 Q 7.14,-16.87 6.545,-17.99 5.95,-19.145 5.53,-20.02 v 0.07 q 0,-0.035 -0.035,-0.07 Q 5.46,-20.055 5.46,-20.09 H 5.18 q 0.105,1.225 0.14,2.415 0.07,1.155 0.07,2.625 V 0 H 2.975 v -23.59 h 2.66 z"
     style="font-style:normal;font-variant:normal;font-weight:300;font-stretch:normal;font-size:35px;font-family:'Sukhumvit Set';-inkscape-font-specification:'Sukhumvit Set, Light';font-variant-ligatures:normal;font-variant-caps:normal;font-variant-numeric:normal;font-feature-settings:normal;text-align:start;writing-mode:lr-tb;text-anchor:start;fill:#2d503b"
     id="path839" /><path
     d="m 35.283828,-1.645 q 2.03,0 3.535,-0.7 1.505,-0.7 2.485,-1.995 1.015,-1.33 1.505,-3.22 0.49,-1.89 0.49,-4.235 0,-2.345 -0.49,-4.235 -0.49,-1.89 -1.505,-3.185 -0.98,-1.33 -2.485,-2.03 -1.505,-0.7 -3.535,-0.7 -2.03,0 -3.57,0.7 -1.505,0.7 -2.52,2.03 -0.98,1.295 -1.47,3.185 -0.49,1.89 -0.49,4.235 0,2.345 0.49,4.235 0.49,1.89 1.47,3.22 1.015,1.295 2.52,1.995 1.54,0.7 3.57,0.7 z m 0,1.96 q -2.695,0 -4.655,-0.91 -1.925,-0.91 -3.22,-2.52 -1.295,-1.645 -1.925,-3.85 -0.595,-2.24 -0.595,-4.83 0,-2.59 0.595,-4.795 0.63,-2.24 1.925,-3.85 1.295,-1.645 3.22,-2.555 1.96,-0.91 4.655,-0.91 2.66,0 4.62,0.91 1.995,0.91 3.255,2.555 1.295,1.61 1.925,3.85 0.63,2.205 0.63,4.795 0,2.59 -0.63,4.83 -0.63,2.205 -1.925,3.85 -1.26,1.61 -3.255,2.52 -1.96,0.91 -4.62,0.91 z"
     style="font-style:normal;font-variant:normal;font-weight:300;font-stretch:normal;font-size:35px;font-family:'Sukhumvit Set';-inkscape-font-specification:'Sukhumvit Set, Light';font-variant-ligatures:normal;font-variant-caps:normal;font-variant-numeric:normal;font-feature-settings:normal;text-align:start;writing-mode:lr-tb;text-anchor:start;fill:#2d503b"
     id="path841" /><path
     d="m 66.241328,-16.66 q 0,2.555 -1.54,4.375 -1.505,1.82 -4.13,2.52 l 5.775,9.765 h -2.66 l -5.6,-9.52 h -5.495 V 0 h -2.38 v -23.59 h 8.33 q 1.82,0 3.255,0.56 1.435,0.525 2.415,1.47 0.98,0.91 1.505,2.17 0.525,1.26 0.525,2.73 z m -2.415,0 q 0,-2.17 -1.365,-3.43 -1.33,-1.26 -3.92,-1.26 h -5.95 v 9.625 h 5.74 q 2.555,0 4.025,-1.33 1.47,-1.33 1.47,-3.605 z"
     style="font-style:normal;font-variant:normal;font-weight:300;font-stretch:normal;font-size:35px;font-family:'Sukhumvit Set';-inkscape-font-specification:'Sukhumvit Set, Light';font-variant-ligatures:normal;font-variant-caps:normal;font-variant-numeric:normal;font-feature-settings:normal;text-align:start;writing-mode:lr-tb;text-anchor:start;fill:#2d503b"
     id="path843" /><path
     d="m 80.3075,-3.885 -5.215,-11.445 q -0.49,-1.085 -0.945,-2.135 -0.455,-1.085 -0.91,-2.52 l -0.315,0.035 q 0.175,1.645 0.175,3.15 0.035,1.505 0.035,2.38 V 0 h -2.345 v -23.59 h 2.905 l 5.74,12.705 q 0.28,0.595 0.595,1.33 0.315,0.735 0.595,1.47 0.315,0.735 0.56,1.4 0.245,0.63 0.385,1.085 0.14,-0.385 0.42,-1.015 0.28,-0.665 0.595,-1.4 0.35,-0.77 0.665,-1.505 0.315,-0.77 0.595,-1.365 l 5.74,-12.705 h 2.905 V 0 h -2.38 v -14.42 q 0,-0.875 0.035,-2.345 0.035,-1.505 0.245,-3.15 l -0.28,-0.07 q -0.49,1.435 -0.98,2.52 -0.455,1.05 -0.945,2.135 l -5.215,11.445 z"
     style="font-style:normal;font-variant:normal;font-weight:300;font-stretch:normal;font-size:35px;font-family:'Sukhumvit Set';-inkscape-font-specification:'Sukhumvit Set, Light';font-variant-ligatures:normal;font-variant-caps:normal;font-variant-numeric:normal;font-feature-settings:normal;text-align:start;writing-mode:lr-tb;text-anchor:start;fill:#2d503b"
     id="path845" /><path
     d="m 104.00797,0.315 q -1.225,0 -2.205,-0.105 -0.98,-0.07 -1.785,-0.245 -0.770001,-0.175 -1.435001,-0.385 -0.665,-0.245 -1.225,-0.56 0.14,-0.49 0.315,-0.98 0.175,-0.49 0.315,-0.945 1.05,0.49 2.450001,0.805 1.4,0.315 3.255,0.315 1.295,0 2.415,-0.245 1.12,-0.245 1.89,-0.77 0.805,-0.56 1.26,-1.4 0.455,-0.84 0.455,-1.995 0,-1.155 -0.49,-1.925 -0.455,-0.77 -1.26,-1.33 -0.805,-0.56 -1.855,-0.91 -1.05,-0.385 -2.205,-0.77 -1.085,-0.35 -2.275,-0.84 -1.155,-0.525 -2.135001,-1.26 -0.945,-0.77 -1.575,-1.855 -0.595,-1.12 -0.595,-2.695 0,-1.295 0.42,-2.415 0.455,-1.155 1.4,-1.96 0.945001,-0.805 2.380001,-1.26 1.47,-0.49 3.535,-0.49 1.68,0 3.08,0.315 1.4,0.28 2.59,0.875 -0.14,0.49 -0.35,0.98 -0.175,0.49 -0.315,0.945 -1.015,-0.49 -2.31,-0.735 -1.295,-0.28 -2.695,-0.28 -2.905,0 -4.165,1.12 -1.260001,1.12 -1.260001,2.87 0,1.085 0.420001,1.82 0.455,0.735 1.19,1.26 0.735,0.525 1.715,0.91 1.015,0.385 2.135,0.77 1.26,0.42 2.485,0.945 1.26,0.49 2.24,1.26 0.98,0.77 1.575,1.925 0.63,1.12 0.63,2.765 0,1.645 -0.595,2.87 -0.595,1.19 -1.68,1.995 -1.05,0.805 -2.52,1.225 -1.47,0.385 -3.22,0.385 z"
     style="font-style:normal;font-variant:normal;font-weight:300;font-stretch:normal;font-size:35px;font-family:'Sukhumvit Set';-inkscape-font-specification:'Sukhumvit Set, Light';font-variant-ligatures:normal;font-variant-caps:normal;font-variant-numeric:normal;font-feature-settings:normal;text-align:start;writing-mode:lr-tb;text-anchor:start;fill:#2d503b"
     id="path847" /></g>
<g
   aria-label="DORM"
   style="font-style:normal;font-variant:normal;font-weight:600;font-stretch:normal;font-size:30px;font-family:'Sukhumvit Set';-inkscape-font-specification:'Sukhumvit Set, Semi-Bold';font-variant-ligatures:normal;font-variant-caps:normal;font-variant-numeric:normal;font-feature-settings:normal;text-align:start;writing-mode:lr-tb;text-anchor:start;fill:#2d503b"
   id="text8"><path
     d="m 133.21219,16.341044 q 0,5.01 -2.58,7.59 -2.55,2.58 -7.56,2.58 h -6.09 V 6.2910435 h 6.09 q 5.01,0 7.56,2.55 2.58,2.5500005 2.58,7.5000005 z m -3.24,0 q 0,-1.92 -0.48,-3.27 -0.45,-1.38 -1.35,-2.25 -0.87,-0.8700005 -2.16,-1.2600005 -1.26,-0.39 -2.91,-0.39 h -2.85 V 23.631044 h 2.85 q 1.65,0 2.91,-0.42 1.29,-0.42 2.16,-1.29 0.9,-0.87 1.35,-2.25 0.48,-1.38 0.48,-3.33 z"
     style="font-style:normal;font-variant:normal;font-weight:600;font-stretch:normal;font-size:30px;font-family:'Sukhumvit Set';-inkscape-font-specification:'Sukhumvit Set, Semi-Bold';font-variant-ligatures:normal;font-variant-caps:normal;font-variant-numeric:normal;font-feature-settings:normal;text-align:start;writing-mode:lr-tb;text-anchor:start;fill:#2d503b"
     id="path830" /><path
     d="m 144.91829,5.9610435 q 2.34,0 4.08,0.81 1.74,0.78 2.88,2.19 1.17,1.3800005 1.71,3.3000005 0.57,1.92 0.57,4.14 0,2.22 -0.57,4.14 -0.54,1.92 -1.71,3.33 -1.14,1.38 -2.88,2.19 -1.74,0.78 -4.08,0.78 -2.34,0 -4.08,-0.78 -1.74,-0.81 -2.91,-2.19 -1.14,-1.41 -1.71,-3.33 -0.54,-1.92 -0.54,-4.14 0,-2.22 0.54,-4.14 0.57,-1.92 1.71,-3.3000005 1.17,-1.41 2.91,-2.19 1.74,-0.81 4.08,-0.81 z m 0,18.2700005 q 3,0 4.5,-2.04 1.5,-2.07 1.5,-5.79 0,-3.72 -1.5,-5.76 -1.5,-2.0700005 -4.5,-2.0700005 -3,0 -4.5,2.0700005 -1.5,2.04 -1.5,5.76 0,3.72 1.5,5.79 1.5,2.04 4.5,2.04 z"
     style="font-style:normal;font-variant:normal;font-weight:600;font-stretch:normal;font-size:30px;font-family:'Sukhumvit Set';-inkscape-font-specification:'Sukhumvit Set, Semi-Bold';font-variant-ligatures:normal;font-variant-caps:normal;font-variant-numeric:normal;font-feature-settings:normal;text-align:start;writing-mode:lr-tb;text-anchor:start;fill:#2d503b"
     id="path832" /><path
     d="m 171.95766,12.471044 q 0,2.1 -1.2,3.66 -1.2,1.53 -3.21,2.16 l 4.77,8.22 h -3.48 l -4.5,-7.74 h -3.51 v 7.74 h -3.24 V 6.2910435 h 7.41 q 1.65,0 2.94,0.48 1.32,0.48 2.19,1.32 0.9,0.84 1.35,1.9800005 0.48,1.11 0.48,2.4 z m -3.24,0 q 0,-1.5 -0.93,-2.4 -0.93,-0.9000005 -2.79,-0.9000005 h -4.17 v 6.7200005 h 4.08 q 1.8,0 2.79,-0.93 1.02,-0.93 1.02,-2.49 z"
     style="font-style:normal;font-variant:normal;font-weight:600;font-stretch:normal;font-size:30px;font-family:'Sukhumvit Set';-inkscape-font-specification:'Sukhumvit Set, Semi-Bold';font-variant-ligatures:normal;font-variant-caps:normal;font-variant-numeric:normal;font-feature-settings:normal;text-align:start;writing-mode:lr-tb;text-anchor:start;fill:#2d503b"
     id="path834" /><path
     d="m 183.61876,23.331044 -3.75,-8.55 q -0.51,-1.14 -0.87,-2.28 -0.36,-1.17 -0.69,-2.43 h -0.09 q 0.09,0.69 0.18,1.44 0.09,0.75 0.12,1.47 0.06,0.72 0.09,1.35 0.03,0.63 0.03,1.08 v 11.1 h -3.18 V 6.2910435 h 3.75 l 4.41,10.0500005 q 0.6,1.32 0.99,2.52 0.39,1.17 0.57,2.04 h 0.06 q 0.21,-0.87 0.57,-2.04 0.39,-1.2 0.99,-2.52 l 4.44,-10.0500005 h 3.75 V 26.511044 h -3.18 v -11.1 q 0,-0.45 0.03,-1.08 0.03,-0.63 0.06,-1.35 0.06,-0.72 0.12,-1.47 0.09,-0.75 0.18,-1.44 h -0.06 q -0.33,1.26 -0.69,2.43 -0.36,1.14 -0.87,2.28 l -3.75,8.55 z"
     style="font-style:normal;font-variant:normal;font-weight:600;font-stretch:normal;font-size:30px;font-family:'Sukhumvit Set';-inkscape-font-specification:'Sukhumvit Set, Semi-Bold';font-variant-ligatures:normal;font-variant-caps:normal;font-variant-numeric:normal;font-feature-settings:normal;text-align:start;writing-mode:lr-tb;text-anchor:start;fill:#2d503b"
     id="path836" /></g>
<path
   style="fill:none;stroke:#b29740;stroke-miterlimit:10"
   d="m 114.5,4.5 h 83 v 24 h -83 z"
   id="rect10" />
<g
   aria-label="’"
   style="font-style:normal;font-variant:normal;font-weight:normal;font-stretch:normal;font-size:35px;font-family:'Sukhumvit Set';-inkscape-font-specification:'Sukhumvit Set, Normal';font-variant-ligatures:normal;font-variant-caps:normal;font-variant-numeric:normal;font-feature-settings:normal;text-align:start;writing-mode:lr-tb;text-anchor:start;fill:#b29740"
   id="text12"><path
     d="m 94.144571,9.0462498 q 0.525,-0.98 0.91,-2.17 0.385,-1.225 0.385,-1.96 0,-0.595 -0.35,-0.595 -1.295,0 -1.295,-1.54 0,-0.7 0.42,-1.155 0.42,-0.49 1.26,-0.49 0.84,0 1.295,0.525 0.49,0.49 0.49,1.505 v 0.14 q -0.035,0.665 -0.245,1.47 -0.175,0.805 -0.455,1.61 -0.28,0.805 -0.665,1.575 -0.35,0.77 -0.7,1.33 -0.28,-0.07 -0.525,-0.105 -0.245,-0.07 -0.525,-0.14 z"
     style="font-style:normal;font-variant:normal;font-weight:normal;font-stretch:normal;font-size:35px;font-family:'Sukhumvit Set';-inkscape-font-specification:'Sukhumvit Set, Normal';font-variant-ligatures:normal;font-variant-caps:normal;font-variant-numeric:normal;font-feature-settings:normal;text-align:start;writing-mode:lr-tb;text-anchor:start;fill:#b29740"
     id="path826" /></g>
</svg>